<?xml version="1.0" standalone="no"?>
<!DOCTYPE svg PUBLIC "-//W3C//DTD SVG 20010904//EN"
 "http://www.w3.org/TR/2001/REC-SVG-20010904/DTD/svg10.dtd">
<svg version="1.0" xmlns="http://www.w3.org/2000/svg"
 width="252.000000pt" height="252.000000pt" viewBox="0 0 252.000000 252.000000"
 preserveAspectRatio="xMidYMid meet">
<metadata>
Created by potrace 1.11, written by Peter Selinger 2001-2013
</metadata>
<g transform="translate(0.000000,252.000000) scale(0.100000,-0.100000)"
fill="#000000" stroke="none">
<path d="M723 2260 c-122 -54 -169 -186 -66 -184 42 1 176 61 167 75 -3 5 -30
9 -60 9 -30 0 -54 2 -54 4 0 2 15 20 34 41 36 39 52 75 33 74 -7 0 -31 -9 -54
-19z"/>
<path d="M1730 2272 c0 -11 28 -52 58 -84 l26 -28 -55 0 c-31 0 -59 -3 -62 -7
-9 -8 84 -59 134 -75 32 -9 42 -8 65 7 23 15 25 22 21 52 -7 42 -77 111 -120
120 -15 3 -30 10 -33 14 -6 11 -34 12 -34 1z"/>
<path d="M805 2228 c-32 -27 -34 -33 -20 -41 30 -16 100 -2 139 29 20 16 36
32 36 37 0 4 -27 7 -60 7 -52 0 -63 -4 -95 -32z"/>
<path d="M1580 2229 c44 -38 71 -49 121 -49 48 0 51 18 8 54 -26 22 -40 26
-97 26 l-67 -1 35 -30z"/>
<path d="M515 2145 c-51 -23 -107 -80 -112 -115 -2 -11 -1 -20 2 -20 14 0 129
88 146 112 30 42 20 48 -36 23z"/>
<path d="M1950 2159 c0 -23 37 -63 97 -106 35 -25 66 -43 69 -41 9 10 -18 62
-47 90 -33 32 -119 73 -119 57z"/>
<path d="M471 2027 c-53 -26 -61 -42 -27 -51 27 -7 39 -3 103 25 24 10 47 19
52 19 5 0 11 7 15 15 9 24 -89 19 -143 -8z"/>
<path d="M1900 2041 c0 -4 32 -23 71 -40 52 -23 80 -30 100 -26 42 10 36 27
-20 53 -49 22 -151 31 -151 13z"/>
<path d="M319 2002 c-66 -49 -102 -150 -65 -181 21 -18 56 -22 80 -9 24 12
109 88 115 101 5 12 -90 -1 -103 -14 -24 -23 -22 -5 4 47 25 50 30 85 11 83
-3 0 -22 -13 -42 -27z"/>
<path d="M2145 2008 c4 -13 17 -44 29 -70 22 -45 22 -59 1 -39 -6 5 -35 12
-65 16 l-55 6 59 -55 c66 -60 106 -75 143 -51 49 32 17 134 -58 188 -48 33
-62 34 -54 5z"/>
<path d="M158 1790 c-33 -34 -53 -111 -38 -140 6 -11 14 -20 18 -20 13 1 55
104 60 148 5 49 -3 52 -40 12z"/>
<path d="M2320 1783 c0 -21 9 -58 20 -82 25 -55 17 -66 -16 -23 -14 18 -31 32
-39 32 -7 0 -18 7 -25 15 -13 16 -50 21 -50 6 0 -10 53 -78 80 -103 20 -19 70
-25 70 -8 0 6 7 10 15 10 45 0 35 112 -16 163 -15 15 -30 27 -33 27 -3 0 -6
-17 -6 -37z"/>
<path d="M1250 1758 c0 -7 -13 -41 -30 -76 -33 -71 -107 -150 -169 -182 l-42
-21 40 -40 c39 -37 47 -56 42 -108 -10 -105 -197 -156 -309 -84 -44 29 -62 58
-62 103 0 34 7 32 -175 64 -77 13 -147 26 -155 28 -23 5 -18 -17 10 -49 93
-104 174 -253 189 -344 10 -59 5 -164 -9 -216 l-8 -33 61 -1 c284 -2 1310 0
1313 3 2 3 -1 20 -6 39 -12 41 -16 181 -5 227 18 84 91 212 182 320 40 47 42
59 8 52 -5 -1 -72 -12 -148 -25 -178 -31 -172 -28 -173 -68 -2 -92 -136 -159
-254 -127 -27 7 -59 26 -82 50 -33 33 -38 44 -38 83 0 41 5 51 40 85 l40 38
-66 43 c-73 48 -113 96 -155 189 -29 61 -39 74 -39 50z"/>
<path d="M250 1720 c-41 -24 -90 -80 -90 -101 0 -5 11 -9 24 -9 24 0 68 36
103 86 32 45 16 55 -37 24z"/>
<path d="M41 1589 c-42 -79 -2 -189 68 -189 38 0 65 33 85 105 9 29 16 56 16
60 0 10 -73 -36 -83 -52 -13 -21 -27 -5 -27 32 0 36 -18 85 -31 85 -4 0 -17
-18 -28 -41z"/>
<path d="M2430 1599 c-7 -17 -13 -48 -14 -70 -1 -37 -2 -39 -16 -22 -20 25
-90 67 -90 55 0 -33 43 -143 60 -152 86 -46 162 78 109 179 -11 23 -25 41 -29
41 -4 0 -13 -14 -20 -31z"/>
<path d="M4 1314 c-10 -54 34 -143 73 -144 15 0 -10 110 -34 151 -23 38 -31
37 -39 -7z"/>
<path d="M2477 1326 c-16 -23 -49 -147 -42 -154 2 -2 13 -1 24 3 31 9 63 91
56 137 -8 44 -17 47 -38 14z"/>
<path d="M123 1295 c-16 -24 -23 -50 -23 -85 l0 -51 29 15 c32 17 36 28 40
104 3 63 -13 69 -46 17z"/>
<path d="M2352 1264 c4 -67 20 -94 55 -94 21 0 16 77 -9 121 -34 62 -51 52
-46 -27z"/>
<path d="M16 1093 c4 -30 18 -62 36 -86 30 -37 84 -68 110 -63 27 6 47 18 53
34 7 20 -26 153 -38 149 -5 -1 -19 -21 -31 -44 l-22 -40 -47 48 c-26 27 -52
49 -58 49 -7 0 -8 -17 -3 -47z"/>
<path d="M2453 1103 c-22 -21 -47 -49 -56 -63 -12 -16 -16 -18 -13 -7 6 19
-28 97 -42 97 -12 0 -44 -133 -37 -151 21 -55 106 -41 160 26 32 40 57 135 35
135 -5 0 -26 -17 -47 -37z"/>
<path d="M247 924 c-13 -14 -7 -89 11 -124 18 -38 39 -45 55 -19 18 28 -45
164 -66 143z"/>
<path d="M2225 868 c-28 -60 -30 -79 -13 -96 18 -18 24 -15 47 24 26 43 29
124 6 124 -9 0 -26 -22 -40 -52z"/>
<path d="M2375 887 c-37 -26 -40 -30 -90 -91 l-39 -49 33 6 c44 9 113 70 128
112 15 43 6 49 -32 22z"/>
<path d="M100 896 c0 -41 102 -146 141 -146 10 0 19 3 19 6 0 6 -55 79 -75 99
-29 30 -85 57 -85 41z"/>
<path d="M348 759 c-3 -8 -4 -31 -2 -51 2 -21 1 -38 -1 -38 -2 0 -22 9 -43 20
-51 27 -102 41 -102 29 0 -24 59 -87 100 -107 73 -34 103 -41 125 -28 51 28
46 60 -18 131 -37 41 -55 54 -59 44z"/>
<path d="M2124 728 c-65 -70 -74 -87 -62 -114 13 -29 54 -39 105 -25 39 11
113 56 113 69 0 5 9 18 21 30 11 12 17 27 14 32 -6 10 -74 -13 -110 -37 -30
-20 -33 -17 -32 32 0 25 -2 47 -5 50 -2 3 -23 -14 -44 -37z"/>
<path d="M530 589 c0 -19 33 -74 53 -91 36 -28 13 -30 -44 -4 -69 32 -136 45
-123 25 14 -24 57 -53 104 -72 52 -20 107 -19 102 2 -2 8 3 11 11 8 7 -3 19 4
26 14 10 17 6 26 -38 68 -47 46 -91 70 -91 50z"/>
<path d="M1918 557 c-43 -35 -53 -49 -54 -75 -1 -28 2 -32 19 -26 12 4 17 2
13 -4 -3 -5 1 -13 10 -16 23 -9 62 -7 68 3 3 5 20 12 38 15 32 6 105 63 94 73
-8 8 -94 -16 -138 -38 -46 -23 -61 -18 -30 10 27 23 55 88 43 96 -6 3 -34 -14
-63 -38z"/>
<path d="M776 462 c-2 -4 9 -27 26 -51 l29 -44 -32 7 c-73 14 -139 19 -139 9
0 -17 76 -62 120 -72 22 -5 40 -6 40 -3 0 3 5 1 11 -5 11 -11 47 -4 95 19 26
12 21 56 -10 78 -33 24 -135 69 -140 62z"/>
<path d="M1680 442 c-106 -54 -121 -72 -94 -110 19 -27 74 -35 142 -21 56 11
132 53 132 72 0 10 -66 5 -139 -9 l-33 -7 27 42 c14 23 25 47 23 51 -2 5 -28
-3 -58 -18z"/>
<path d="M1045 360 c10 -11 37 -29 61 -41 24 -11 44 -24 44 -27 0 -4 -43 -7
-95 -7 -52 0 -95 -4 -95 -9 -2 -17 74 -36 140 -36 77 0 110 8 110 25 0 7 6 15
12 17 10 4 10 10 1 30 -8 19 -28 31 -74 47 -35 11 -76 21 -92 21 -29 0 -30 -1
-12 -20z"/>
<path d="M1372 359 c-48 -15 -66 -26 -75 -46 -9 -21 -9 -27 1 -31 6 -2 12 -10
12 -17 0 -17 33 -25 110 -25 67 0 143 20 138 36 -2 5 -45 9 -95 9 -51 0 -93 3
-93 7 0 4 15 14 33 22 17 8 46 26 62 40 l30 25 -30 0 c-16 0 -58 -9 -93 -20z"/>
</g>
</svg>
